#!OML:ASF I:\Actors\actors\Patient Classification 2\Patient 1\Session 1\actor1.ASF
:FULLY-SPECIFIED
:DEGREES
445
root -0.305808 18.715 5.18955 0.191467 4.13905 -0.689488
lowerback 13.8155 -1.65377 8.08326
upperback 5.39584 -0.912693 6.31348
thorax -2.04085 -0.421017 2.23321
lowerneck -4.26811 -9.42968 -10.3629
upperneck 35.0561 -12.801 2.28456
head 13.395 -6.62837 1.04239
rclavicle 1.03368e-014 7.63333e-014
rhumerus -37.6155 5.86748 -71.5978
rradius 46.4453
rwrist -8.70817
rhand -5.04532 -55.8747
rfingers 7.12502
rthumb 20.7499 -444.785
lclavicle 1.03368e-014 7.63333e-014
lhumerus -52.4448 -54.1922 123.964
lradius 94.2421
lwrist 29.0451
lhand 17.2783 -5.79297
lfingers 7.12502
lthumb 41.9917 18.7999
rfemur 0 0 0
rtibia 0
rfoot 0 0
rtoes 0
lfemur -8.24512 -2.37898 -14.2012
ltibia 24.0681
lfoot -17.9108 5.1277
ltoes -56.1463
446
root -0.284854 18.7149 5.17207 0.269088 4.35144 -0.463504
lowerback 14.0613 -1.66822 8.53529
upperback 5.47003 -0.837543 6.53263
thorax -2.09102 -0.380424 2.21048
lowerneck -4.36214 -9.50228 -10.4165
upperneck 34.9636 -12.7737 1.98806
head 13.3537 -6.64832 0.937722
rclavicle 1.11319e-014 -4.77083e-014
rhumerus -36.9067 4.26522 -71.1344
rradius 44.7056
rwrist -7.74788
rhand -5.37802 -55.5986
rfingers 7.12502
rthumb 20.4302 -444.544
lclavicle 1.11319e-014 -4.77083e-014
lhumerus -52.3706 -54.4641 123.995
lradius 94.347
lwrist 28.9286
lhand 17.3707 -6.24373
lfingers 7.12502
lthumb 42.0783 18.32
rfemur 0 0 0
rtibia 0
rfoot 0 0
rtoes 0
lfemur -8.42374 -2.23125 -14.5001
ltibia 24.0599
lfoot -17.7575 4.82372
ltoes -56.1331
447
root -0.266057 18.7148 5.1553 0.30156 4.55155 -0.260406
lowerback 14.451 -1.69486 9.03543
upperback 5.50641 -0.746191 6.70203
thorax -2.25829 -0.334589 2.11068
lowerneck -4.3862 -9.57738 -10.3694
upperneck 34.8576 -12.7677 1.67123
head 13.2823 -6.66975 0.811537
rclavicle -7.95139e-016 0
rhumerus -36.4189 2.92907 -70.8505
rradius 43.3085
rwrist -6.88397
rhand -5.34405 -55.2996
rfingers 7.12502
rthumb 20.4628 -444.241
lclavicle -7.95139e-016 0
lhumerus -52.4259 -54.7235 124.101
lradius 94.4736
lwrist 28.9144
lhand 17.4288 -6.42176
lfingers 7.12502
lthumb 42.1327 18.1237
rfemur 0 0 0
rtibia 0
rfoot 0 0
rtoes 0
lfemur -8.54081 -2.02216 -14.7636
ltibia 24.0329
lfoot -17.5882 4.50686
ltoes -56.2045
448
root -0.247574 18.7161 5.13986 0.337813 4.73112 -0.074383
lowerback 14.8217 -1.77871 9.50372
upperback 5.53088 -0.731133 6.86391
thorax -2.42906 -0.327657 2.03352
lowerneck -4.41692 -9.55007 -10.6007
upperneck 34.905 -12.6669 1.62932
head 13.3213 -6.65258 0.843845
rclavicle -3.57812e-014 -3.18055e-014
rhumerus -36.0429 2.10471 -70.72
rradius 42.2877
rwrist -6.3526
rhand -5.17659 -55.3132
rfingers 7.12502
rthumb 20.6237 -444.238
lclavicle -3.57812e-014 -3.18055e-014
lhumerus -52.4789 -54.7798 124.168
lradius 94.6083
lwrist 28.9017
lhand 17.3597 -6.61104
lfingers 7.12502
lthumb 42.068 17.9562
rfemur 0 0 0
rtibia 0
rfoot 0 0
rtoes 0
lfemur -8.64091 -1.79335 -15.0035
ltibia 23.9949
lfoot -17.4108 4.18655
ltoes -56.2161
449
root -0.227931 18.719 5.12664 0.470184 4.881 0.102519
lowerback 14.7739 -1.8645 9.82913
upperback 5.69949 -0.815406 7.05838
thorax -2.22246 -0.35835 2.07345
lowerneck -4.6726 -9.52289 -10.691
upperneck 34.9334 -12.5248 1.4612
head 13.3725 -6.61163 0.799295
rclavicle -4.77083e-015 4.13472e-014
rhumerus -35.5434 1.6465 -70.654
rradius 41.6388
rwrist -6.28036
rhand -4.98913 -55.3189
rfingers 7.12502
rthumb 20.8039 -444.224
lclavicle -4.77083e-015 4.13472e-014
lhumerus -52.2174 -54.7854 123.913
lradius 94.7671
lwrist 28.7834
lhand 17.2998 -6.87203
lfingers 7.12502
lthumb 42.0119 17.714
rfemur 0 0 0
rtibia 0
rfoot 0 0
rtoes 0
lfemur -8.83666 -1.51384 -15.236
ltibia 23.9595
lfoot -17.2376 3.85065
ltoes -56.1799
450
root -0.208007 18.7216 5.11675 0.68251 4.96572 0.240165
lowerback 14.8182 -1.93222 10.2429
upperback 5.70232 -0.832753 7.209
thorax -2.24181 -0.36409 2.01246
lowerneck -4.72834 -9.5091 -10.6884
upperneck 34.9377 -12.4164 1.22338
head 13.3596 -6.58695 0.720922
rclavicle -3.97569e-015 3.81667e-014
rhumerus -35.4739 1.2612 -70.6091
rradius 41.4411
rwrist -6.46032
rhand -4.78588 -55.1869
rfingers 7.12502
rthumb 20.9991 -444.07
lclavicle -3.97569e-015 3.81667e-014
lhumerus -52.4113 -54.7041 124.008
lradius 94.9298
lwrist 28.6911
lhand 17.186 -7.21198
lfingers 7.12502
lthumb 41.9052 17.4098
rfemur 0 0 0
rtibia 0
rfoot 0 0
rtoes 0
lfemur -9.09779 -1.17164 -15.4253
ltibia 23.9276
lfoot -17.0874 3.49072
ltoes -56.1279
451
root -0.189459 18.7241 5.11012 0.905326 4.99507 0.349859
lowerback 14.7913 -2.04786 10.5613
upperback 5.63369 -0.927024 7.41301
thorax -2.30167 -0.412184 2.074
lowerneck -4.54837 -9.39869 -10.9196
upperneck 34.9965 -12.1548 0.978422
head 13.3324 -6.53082 0.710343
rclavicle 3.02153e-014 3.18055e-015
rhumerus -35.5676 1.15501 -70.4923
rradius 41.5175
rwrist -6.7549
rhand -4.51884 -55.0927
rfingers 7.12502
rthumb 21.2557 -443.947
lclavicle 3.02153e-014 3.18055e-015
lhumerus -52.5623 -54.2879 124.17
lradius 95.0326
lwrist 28.6894
lhand 17.013 -7.44784
lfingers 7.12502
lthumb 41.743 17.2277
rfemur 0 0 0
rtibia 0
rfoot 0 0
rtoes 0
lfemur -9.33492 -0.895416 -15.583
ltibia 23.8875
lfoot -16.9976 3.17702
ltoes -56.0738
452
root -0.171554 18.7276 5.10331 1.11451 5.00845 0.47602
lowerback 14.7934 -2.02751 11.012
upperback 5.76862 -0.85279 7.42289
thorax -2.15469 -0.363182 1.82378
lowerneck -5.10289 -9.53642 -10.5805
upperneck 35.2114 -12.256 0.666528
head 13.4968 -6.55515 0.486025
rclavicle -1.98785e-014 -1.59028e-014
rhumerus -35.3515 0.26555 -70.3919
rradius 41.6538
rwrist -7.09889
rhand -3.99756 -54.9712
rfingers 7.12502
rthumb 21.7563 -443.769
lclavicle -1.98785e-014 -1.59028e-014
lhumerus -52.3221 -54.7288 123.922
lradius 95.1014
lwrist 28.8825
lhand 17.0815 -7.37085
lfingers 7.12502
lthumb 41.8072 17.2834
rfemur 0 0 0
rtibia 0
rfoot 0 0
rtoes 0
lfemur -9.55103 -0.718786 -15.7658
ltibia 23.8308
lfoot -16.9213 2.99116
ltoes -56.1048
453
root -0.153071 18.73 5.09537 1.28962 4.99579 0.658048
lowerback 14.8431 -2.09337 11.204
upperback 5.73056 -0.894018 7.53393
thorax -2.22243 -0.385471 1.84792
lowerneck -4.96923 -9.52518 -10.7619
upperneck 35.1958 -12.1835 0.555981
head 13.4661 -6.55907 0.490394
rclavicle 1.27222e-014 -3.81667e-014
rhumerus -35.4567 0.178664 -70.1033
rradius 42.0202
rwrist -7.73963
rhand -3.14908 -54.6923
rfingers 7.12502
rthumb 22.5709 -443.393
lclavicle 1.27222e-014 -3.81667e-014
lhumerus -52.3609 -54.5327 124.008
lradius 95.1392
lwrist 28.987
lhand 17.5263 -7.22362
lfingers 7.12502
lthumb 42.2241 17.2909
rfemur 0 0 0
rtibia 0
rfoot 0 0
rtoes 0
lfemur -9.71985 -0.503705 -16.0151
ltibia 23.7561
lfoot -16.8001 2.83094
ltoes -56.0883
454
root -0.135324 18.7306 5.08878 1.44897 4.96102 0.87468
lowerback 14.9084 -2.16587 11.2655
upperback 5.72817 -0.964705 7.62264
thorax -2.26173 -0.42181 1.9244
lowerneck -4.98343 -9.51206 -10.7929
upperneck 35.245 -12.0851 0.330868
head 13.4707 -6.54494 0.420938
rclavicle -2.38542e-015 -8.90555e-014
rhumerus -35.4714 0.398662 -69.7114
rradius 42.4679
rwrist -8.42119
rhand -2.08655 -54.1311
rfingers 7.12502
rthumb 23.5904 -442.704
lclavicle -2.38542e-015 -8.90555e-014
lhumerus -52.2464 -54.342 123.944
lradius 95.1594
lwrist 29.032
lhand 18.0852 -7.13184
lfingers 7.12502
lthumb 42.7473 17.2028
rfemur 0 0 0
rtibia 0
rfoot 0 0
rtoes 0
lfemur -9.84421 -0.23743 -16.2966
ltibia 23.6703
lfoot -16.6779 2.60781
ltoes -55.9273
455
root -0.118877 18.7302 5.08483 1.56845 4.8869 1.06868
lowerback 14.9815 -2.2517 11.2618
upperback 5.75719 -1.06546 7.69444
thorax -2.27266 -0.471968 2.02339
lowerneck -5.09579 -9.48544 -10.7661
upperneck 35.3456 -11.9773 0.126964
head 13.5146 -6.51667 0.344785
rclavicle 9.54166e-015 -7.31528e-014
rhumerus -35.3577 0.828475 -69.1877
rradius 42.8654
rwrist -8.98473
rhand -0.847472 -53.6773
rfingers 7.12502
rthumb 24.7784 -442.092
lclavicle 9.54166e-015 -7.31528e-014
lhumerus -52.0282 -54.1289 123.766
lradius 95.2062
lwrist 28.8959
lhand 18.1768 -7.08823
lfingers 7.12502
lthumb 42.833 17.2165
rfemur 0 0 0
rtibia 0
rfoot 0 0
rtoes 0
lfemur -9.90317 0.020623 -16.5497
ltibia 23.5826
lfoot -16.5969 2.3869
ltoes -55.7867
456
root -0.102197 18.7294 5.08152 1.6425 4.7502 1.21362
lowerback 15.0998 -2.29959 11.3134
upperback 5.7707 -1.10116 7.71751
thorax -2.32272 -0.490871 2.03047
lowerneck -5.08107 -9.48903 -10.8977
upperneck 35.3367 -12.0375 0.345067
head 13.5401 -6.53291 0.441345
rclavicle -9.54166e-015 -2.54444e-014
rhumerus -35.2943 1.14561 -68.4423
rradius 43.2133
rwrist -9.45837
rhand 0.587837 -53.44
rfingers 7.12502
rthumb 26.1533 -441.659
lclavicle -9.54166e-015 -2.54444e-014
lhumerus -52.028 -54.0585 123.751
lradius 95.3132
lwrist 28.7083
lhand 17.8524 -7.12764
lfingers 7.12502
lthumb 42.5295 17.2825
rfemur 0 0 0
rtibia 0
rfoot 0 0
rtoes 0
lfemur -9.91214 0.273038 -16.7556
ltibia 23.5052
lfoot -16.5743 2.2196
ltoes -55.714
457
root -0.0838763 18.7303 5.07766 1.73041 4.56554 1.31287
lowerback 15.2158 -2.31932 11.4152
upperback 5.78076 -1.09471 7.69901
thorax -2.37445 -0.488442 1.95806
lowerneck -5.08866 -9.51761 -10.8444
upperneck 35.2996 -12.136 0.480768
head 13.5367 -6.55255 0.471708
rclavicle -4.77083e-015 4.45278e-014
rhumerus -35.2224 1.30694 -67.4578
rradius 43.4914
rwrist -10.0108
rhand 2.03945 -53.1009
rfingers 7.12502
rthumb 27.5423 -441.106
lclavicle -4.77083e-015 4.45278e-014
lhumerus -52.088 -54.1851 123.758
lradius 95.4518
lwrist 28.5981
lhand 17.8829 -7.15885
lfingers 7.12502
lthumb 42.558 17.2414
rfemur 0 0 0
rtibia 0
rfoot 0 0
rtoes 0
lfemur -9.95534 0.549806 -16.9229
ltibia 23.4474
lfoot -16.5807 2.10597
ltoes -55.7006
458
root -0.0634694 18.7324 5.07614 1.81062 4.3347 1.37526
lowerback 15.2982 -2.34957 11.506
upperback 5.82384 -1.11411 7.6782
thorax -2.37355 -0.496489 1.89192
lowerneck -5.1666 -9.56923 -10.6132
upperneck 35.298 -12.1956 0.321117
head 13.5222 -6.56759 0.36139
rclavicle -1.27222e-014 -4.45278e-014
rhumerus -35.0999 1.48964 -66.23
rradius 43.7724
rwrist -10.8205
rhand 3.06186 -53.0358
rfingers 7.12502
rthumb 28.5197 -440.881
lclavicle -1.27222e-014 -4.45278e-014
lhumerus -51.9973 -54.3719 123.64
lradius 95.5241
lwrist 28.4921
lhand 18.1027 -7.17604
lfingers 7.12502
lthumb 42.7637 17.1529
rfemur 0 0 0
rtibia 0
rfoot 0 0
rtoes 0
lfemur -9.99446 0.903171 -17.0601
ltibia 23.4131
lfoot -16.5765 1.99116
ltoes -55.6628
459
root -0.0422056 18.7335 5.07667 1.85658 4.09472 1.45062
lowerback 15.3811 -2.43241 11.5229
upperback 5.83147 -1.20745 7.67259
thorax -2.41429 -0.544046 1.89654
lowerneck -5.16619 -9.58578 -10.5433
upperneck 35.4158 -12.1741 0.112286
head 13.5511 -6.5754 0.269612
rclavicle 4.77083e-015 1.90833e-014
rhumerus -35.0366 1.90607 -64.7314
rradius 44.072
rwrist -11.7938
rhand 3.62528 -53.3397
rfingers 7.12502
rthumb 29.0579 -441.094
lclavicle 4.77083e-015 1.90833e-014
lhumerus -51.9193 -54.3373 123.568
lradius 95.5199
lwrist 28.3714
lhand 18.1262 -7.19439
lfingers 7.12502
lthumb 42.7857 17.1269
rfemur 0 0 0
rtibia 0
rfoot 0 0
rtoes 0
lfemur -9.99319 1.22207 -17.2158
ltibia 23.4015
lfoot -16.584 1.91069
ltoes -55.5948
